# xmcd
#
# Track frame offsets:
#	150
#	11710
#	31882
#	47338
#	61285
#	76864
#	88278
#	107831
#	124506
#
# Disc length: 1809 seconds
#
# Revision: 1
# Processed by: cddbd v1.5.2PL0 Copyright (c) Steve Scherf et al.
# Submitted via: audiograbber 1.83.01
#
DISCID=66070f09
DTITLE=איתמר בק ופקידי הקבלה - איתמר בק ופקידי הקבלה
DYEAR=2018
DGENRE=
TTITLE0=שירותים
TTITLE1=הבלדה על ג'ון הנרי
TTITLE2=פקיד קבלה בלוז
TTITLE3=בז"ן בלוז
TTITLE4=מגרד
TTITLE5=נכה מחמד
TTITLE6=זוגותי השנייה
TTITLE7=Little Shoeshine Boy
TTITLE8=בחירה קשה
EXTD=
EXTT0=
EXTT1=
EXTT2=
EXTT3=
EXTT4=
EXTT5=
EXTT6=
EXTT7=
EXTT8=
PLAYORDER=
